<mxfile host="app.diagrams.net" modified="2022-10-08T07:40:20.181Z" agent="5.0 (Macintosh; Intel Mac OS X 10_15_7) AppleWebKit/537.36 (KHTML, like Gecko) Chrome/106.0.0.0 Safari/537.36" etag="u5tdzkDm5ZC1r7K_djPr" version="20.3.2" type="github">
  <diagram id="xWMs1hTbjoeOmaXrTfvo" name="Page-1">
    <mxGraphModel dx="2207" dy="686" grid="1" gridSize="10" guides="1" tooltips="1" connect="1" arrows="1" fold="1" page="1" pageScale="1" pageWidth="827" pageHeight="1169" math="0" shadow="0">
      <root>
        <mxCell id="0" />
        <mxCell id="1" parent="0" />
        <mxCell id="k6Jw7tT7C6OBQGts24MX-1" value="SYN_SENT" style="rounded=0;whiteSpace=wrap;html=1;fontSize=16;fontStyle=1;fillColor=#dae8fc;strokeColor=#6c8ebf;gradientColor=#7ea6e0;" parent="1" vertex="1">
          <mxGeometry x="160" y="80" width="120" height="210" as="geometry" />
        </mxCell>
        <mxCell id="k6Jw7tT7C6OBQGts24MX-4" value="RST" style="rounded=0;orthogonalLoop=1;jettySize=auto;html=1;fontSize=16;exitX=-0.008;exitY=0.588;exitDx=0;exitDy=0;exitPerimeter=0;fillColor=#f8cecc;strokeColor=#FF6666;fontColor=#FF6666;fontStyle=1;strokeWidth=2;" parent="1" source="k6Jw7tT7C6OBQGts24MX-2" edge="1">
          <mxGeometry relative="1" as="geometry">
            <mxPoint x="480" y="120" as="sourcePoint" />
            <mxPoint x="370" y="160" as="targetPoint" />
          </mxGeometry>
        </mxCell>
        <mxCell id="k6Jw7tT7C6OBQGts24MX-2" value="CLOSED" style="rounded=0;whiteSpace=wrap;html=1;fontSize=16;fontStyle=1;fillColor=#f5f5f5;strokeColor=#666666;gradientColor=#b3b3b3;" parent="1" vertex="1">
          <mxGeometry x="480" y="80" width="120" height="90" as="geometry" />
        </mxCell>
        <mxCell id="k6Jw7tT7C6OBQGts24MX-3" value="SYN" style="endArrow=classic;html=1;rounded=0;exitX=1;exitY=0;exitDx=0;exitDy=0;entryX=0;entryY=0.5;entryDx=0;entryDy=0;fontSize=16;fillColor=#dae8fc;gradientColor=#7ea6e0;strokeColor=#6c8ebf;strokeWidth=2;" parent="1" source="k6Jw7tT7C6OBQGts24MX-1" target="k6Jw7tT7C6OBQGts24MX-2" edge="1">
          <mxGeometry width="50" height="50" relative="1" as="geometry">
            <mxPoint x="300" y="60" as="sourcePoint" />
            <mxPoint x="380" y="110" as="targetPoint" />
          </mxGeometry>
        </mxCell>
        <mxCell id="k6Jw7tT7C6OBQGts24MX-7" value="SYN+ACK" style="edgeStyle=none;rounded=0;orthogonalLoop=1;jettySize=auto;html=1;fontSize=16;exitX=0;exitY=1;exitDx=0;exitDy=0;fillColor=#dae8fc;gradientColor=#7ea6e0;strokeColor=#6c8ebf;strokeWidth=2;" parent="1" source="k6Jw7tT7C6OBQGts24MX-5" edge="1">
          <mxGeometry relative="1" as="geometry">
            <mxPoint x="280" y="290" as="targetPoint" />
          </mxGeometry>
        </mxCell>
        <mxCell id="k6Jw7tT7C6OBQGts24MX-5" value="LISTEN" style="rounded=0;whiteSpace=wrap;html=1;fontSize=16;fontStyle=1;fillColor=#e6d0de;strokeColor=#996185;gradientColor=#d5739d;" parent="1" vertex="1">
          <mxGeometry x="480" y="170" width="120" height="60" as="geometry" />
        </mxCell>
        <mxCell id="k6Jw7tT7C6OBQGts24MX-6" value="重传 SYN" style="endArrow=classic;html=1;rounded=0;entryX=0;entryY=0;entryDx=0;entryDy=0;fontSize=16;fillColor=#dae8fc;gradientColor=#7ea6e0;strokeColor=#6c8ebf;strokeWidth=2;" parent="1" target="k6Jw7tT7C6OBQGts24MX-8" edge="1">
          <mxGeometry width="50" height="50" relative="1" as="geometry">
            <mxPoint x="280" y="210" as="sourcePoint" />
            <mxPoint x="480" y="190" as="targetPoint" />
          </mxGeometry>
        </mxCell>
        <mxCell id="k6Jw7tT7C6OBQGts24MX-8" value="SYN_RECV" style="rounded=0;whiteSpace=wrap;html=1;fontSize=16;fontStyle=1;fillColor=#dae8fc;strokeColor=#6c8ebf;gradientColor=#66B2FF;" parent="1" vertex="1">
          <mxGeometry x="480" y="230" width="120" height="90" as="geometry" />
        </mxCell>
        <mxCell id="k6Jw7tT7C6OBQGts24MX-11" value="ACK" style="edgeStyle=none;rounded=0;orthogonalLoop=1;jettySize=auto;html=1;entryX=0;entryY=0;entryDx=0;entryDy=0;fontFamily=Helvetica;fontSize=16;exitX=1;exitY=0;exitDx=0;exitDy=0;fillColor=#dae8fc;gradientColor=#7ea6e0;strokeColor=#6c8ebf;strokeWidth=2;" parent="1" source="k6Jw7tT7C6OBQGts24MX-9" target="k6Jw7tT7C6OBQGts24MX-10" edge="1">
          <mxGeometry relative="1" as="geometry" />
        </mxCell>
        <mxCell id="k6Jw7tT7C6OBQGts24MX-9" value="&lt;span style=&quot;font-weight: 700;&quot;&gt;ESTABLISHED&lt;/span&gt;" style="rounded=0;whiteSpace=wrap;html=1;fontSize=16;fontFamily=Helvetica;fillColor=#d5e8d4;strokeColor=#82b366;gradientColor=#97d077;" parent="1" vertex="1">
          <mxGeometry x="160" y="290" width="120" height="110" as="geometry" />
        </mxCell>
        <mxCell id="k6Jw7tT7C6OBQGts24MX-10" value="&lt;span style=&quot;font-weight: 700;&quot;&gt;ESTABLISHED&lt;/span&gt;" style="rounded=0;whiteSpace=wrap;html=1;fontSize=16;fontFamily=Helvetica;fillColor=#d5e8d4;strokeColor=#82b366;gradientColor=#97d077;" parent="1" vertex="1">
          <mxGeometry x="480" y="320" width="120" height="120" as="geometry" />
        </mxCell>
        <mxCell id="k6Jw7tT7C6OBQGts24MX-13" value="" style="shape=flexArrow;endArrow=classic;startArrow=classic;html=1;rounded=0;fontFamily=Helvetica;fontSize=16;fillColor=#d5e8d4;gradientColor=#97d077;strokeColor=#82b366;strokeWidth=2;" parent="1" edge="1">
          <mxGeometry width="100" height="100" relative="1" as="geometry">
            <mxPoint x="300" y="365" as="sourcePoint" />
            <mxPoint x="460" y="365" as="targetPoint" />
          </mxGeometry>
        </mxCell>
        <mxCell id="k6Jw7tT7C6OBQGts24MX-14" value="HTTP请求" style="text;html=1;align=center;verticalAlign=middle;resizable=0;points=[];autosize=1;strokeColor=none;fillColor=none;fontSize=16;fontFamily=Helvetica;strokeWidth=2;" parent="1" vertex="1">
          <mxGeometry x="340" y="335" width="90" height="20" as="geometry" />
        </mxCell>
        <mxCell id="k6Jw7tT7C6OBQGts24MX-15" value="HTTP响应" style="text;html=1;align=center;verticalAlign=middle;resizable=0;points=[];autosize=1;strokeColor=none;fillColor=none;fontSize=16;fontFamily=Helvetica;strokeWidth=2;" parent="1" vertex="1">
          <mxGeometry x="340" y="380" width="90" height="20" as="geometry" />
        </mxCell>
        <mxCell id="k6Jw7tT7C6OBQGts24MX-25" value="FIN" style="edgeStyle=none;rounded=0;orthogonalLoop=1;jettySize=auto;html=1;fontFamily=Helvetica;fontSize=16;exitX=1;exitY=0;exitDx=0;exitDy=0;entryX=0;entryY=0;entryDx=0;entryDy=0;fillColor=#ffcd28;gradientColor=#ffa500;strokeColor=#d79b00;strokeWidth=2;" parent="1" source="k6Jw7tT7C6OBQGts24MX-16" target="k6Jw7tT7C6OBQGts24MX-17" edge="1">
          <mxGeometry relative="1" as="geometry">
            <mxPoint x="410" y="460" as="targetPoint" />
          </mxGeometry>
        </mxCell>
        <mxCell id="k6Jw7tT7C6OBQGts24MX-16" value="&lt;span style=&quot;&quot;&gt;FIN_WAIT_1&lt;/span&gt;" style="rounded=0;whiteSpace=wrap;html=1;fontSize=16;fontStyle=1;fontFamily=Helvetica;fillColor=#ffcd28;strokeColor=#d79b00;gradientColor=#ffa500;" parent="1" vertex="1">
          <mxGeometry x="160" y="400" width="120" height="80" as="geometry" />
        </mxCell>
        <mxCell id="k6Jw7tT7C6OBQGts24MX-26" value="ACK" style="edgeStyle=none;rounded=0;orthogonalLoop=1;jettySize=auto;html=1;entryX=1;entryY=0;entryDx=0;entryDy=0;fontFamily=Helvetica;fontSize=16;exitX=0;exitY=0;exitDx=0;exitDy=0;fillColor=#ffcd28;gradientColor=#ffa500;strokeColor=#d79b00;strokeWidth=2;" parent="1" source="k6Jw7tT7C6OBQGts24MX-17" target="k6Jw7tT7C6OBQGts24MX-18" edge="1">
          <mxGeometry relative="1" as="geometry" />
        </mxCell>
        <mxCell id="k6Jw7tT7C6OBQGts24MX-28" value="FIN" style="edgeStyle=none;rounded=0;orthogonalLoop=1;jettySize=auto;html=1;entryX=1;entryY=0;entryDx=0;entryDy=0;fontFamily=Helvetica;fontSize=16;exitX=0;exitY=1;exitDx=0;exitDy=0;fillColor=#ffcd28;gradientColor=#ffa500;strokeColor=#d79b00;strokeWidth=2;" parent="1" source="k6Jw7tT7C6OBQGts24MX-17" target="k6Jw7tT7C6OBQGts24MX-20" edge="1">
          <mxGeometry relative="1" as="geometry" />
        </mxCell>
        <mxCell id="k6Jw7tT7C6OBQGts24MX-17" value="&lt;span style=&quot;&quot;&gt;CLOSED_WAIT&lt;/span&gt;" style="rounded=0;whiteSpace=wrap;html=1;fontSize=16;fontStyle=1;fontFamily=Helvetica;fillColor=#fff2cc;strokeColor=#d6b656;gradientColor=#ffd966;" parent="1" vertex="1">
          <mxGeometry x="480" y="440" width="120" height="80" as="geometry" />
        </mxCell>
        <mxCell id="k6Jw7tT7C6OBQGts24MX-18" value="&lt;span&gt;FIN_WAIT_2&lt;/span&gt;" style="rounded=0;whiteSpace=wrap;html=1;fontSize=16;fontStyle=1;fontFamily=Helvetica;fillColor=#ffcd28;strokeColor=#d79b00;gradientColor=#ffa500;" parent="1" vertex="1">
          <mxGeometry x="160" y="480" width="120" height="80" as="geometry" />
        </mxCell>
        <mxCell id="k6Jw7tT7C6OBQGts24MX-29" value="ACK" style="edgeStyle=none;rounded=0;orthogonalLoop=1;jettySize=auto;html=1;fontFamily=Helvetica;fontSize=16;exitX=1;exitY=0;exitDx=0;exitDy=0;entryX=0;entryY=1;entryDx=0;entryDy=0;fillColor=#ffcd28;gradientColor=#ffa500;strokeColor=#d79b00;strokeWidth=2;" parent="1" source="k6Jw7tT7C6OBQGts24MX-20" target="k6Jw7tT7C6OBQGts24MX-21" edge="1">
          <mxGeometry relative="1" as="geometry">
            <mxPoint x="350" y="640" as="targetPoint" />
          </mxGeometry>
        </mxCell>
        <mxCell id="k6Jw7tT7C6OBQGts24MX-20" value="&lt;span style=&quot;font-family: &amp;#34;comic sans ms&amp;#34;&quot;&gt;TIME_WAIT&lt;/span&gt;" style="rounded=0;whiteSpace=wrap;html=1;fontSize=16;fontStyle=1;fontFamily=Helvetica;fillColor=#f8cecc;strokeColor=#b85450;gradientColor=#ea6b66;" parent="1" vertex="1">
          <mxGeometry x="160" y="560" width="120" height="80" as="geometry" />
        </mxCell>
        <mxCell id="k6Jw7tT7C6OBQGts24MX-21" value="&lt;span style=&quot;font-family: &amp;#34;comic sans ms&amp;#34;&quot;&gt;LAST_ACK&lt;/span&gt;" style="rounded=0;whiteSpace=wrap;html=1;fontSize=16;fontStyle=1;fontFamily=Helvetica;fillColor=#fff2cc;strokeColor=#d6b656;gradientColor=#ffd966;" parent="1" vertex="1">
          <mxGeometry x="480" y="520" width="120" height="90" as="geometry" />
        </mxCell>
        <mxCell id="k6Jw7tT7C6OBQGts24MX-24" value="CLOSED" style="rounded=0;whiteSpace=wrap;html=1;fontSize=16;fontStyle=1;fillColor=#f5f5f5;strokeColor=#666666;gradientColor=#b3b3b3;" parent="1" vertex="1">
          <mxGeometry x="480" y="610" width="120" height="30" as="geometry" />
        </mxCell>
        <mxCell id="k6Jw7tT7C6OBQGts24MX-33" value="SYN" style="edgeStyle=none;rounded=0;orthogonalLoop=1;jettySize=auto;html=1;entryX=0;entryY=1;entryDx=0;entryDy=0;fontFamily=Helvetica;fontSize=16;exitX=1;exitY=0;exitDx=0;exitDy=0;fillColor=#dae8fc;gradientColor=#7ea6e0;strokeColor=#6c8ebf;strokeWidth=2;" parent="1" source="k6Jw7tT7C6OBQGts24MX-30" target="k6Jw7tT7C6OBQGts24MX-31" edge="1">
          <mxGeometry relative="1" as="geometry" />
        </mxCell>
        <mxCell id="k6Jw7tT7C6OBQGts24MX-30" value="SYN_SENT" style="rounded=0;whiteSpace=wrap;html=1;fontSize=16;fontStyle=1;fillColor=#dae8fc;strokeColor=#6c8ebf;gradientColor=#7ea6e0;" parent="1" vertex="1">
          <mxGeometry x="160" y="640" width="120" height="140" as="geometry" />
        </mxCell>
        <mxCell id="k6Jw7tT7C6OBQGts24MX-31" value="LISTEN" style="rounded=0;whiteSpace=wrap;html=1;fontSize=16;fontStyle=1;fillColor=#e6d0de;strokeColor=#996185;gradientColor=#d5739d;" parent="1" vertex="1">
          <mxGeometry x="480" y="660" width="120" height="40" as="geometry" />
        </mxCell>
        <mxCell id="k6Jw7tT7C6OBQGts24MX-34" value="SYN+ACK" style="edgeStyle=none;rounded=0;orthogonalLoop=1;jettySize=auto;html=1;fontFamily=Helvetica;fontSize=16;exitX=0;exitY=0;exitDx=0;exitDy=0;fillColor=#dae8fc;gradientColor=#7ea6e0;strokeColor=#6c8ebf;strokeWidth=2;" parent="1" source="k6Jw7tT7C6OBQGts24MX-32" edge="1">
          <mxGeometry relative="1" as="geometry">
            <mxPoint x="280" y="785" as="targetPoint" />
          </mxGeometry>
        </mxCell>
        <mxCell id="k6Jw7tT7C6OBQGts24MX-32" value="SYN_RECV" style="rounded=0;whiteSpace=wrap;html=1;fontSize=16;fontStyle=1;fillColor=#dae8fc;strokeColor=#6c8ebf;gradientColor=#66B2FF;" parent="1" vertex="1">
          <mxGeometry x="480" y="700" width="120" height="110" as="geometry" />
        </mxCell>
        <mxCell id="k6Jw7tT7C6OBQGts24MX-37" value="ACK" style="edgeStyle=none;rounded=0;orthogonalLoop=1;jettySize=auto;html=1;entryX=0;entryY=0;entryDx=0;entryDy=0;fontFamily=Helvetica;fontSize=16;fillColor=#dae8fc;gradientColor=#7ea6e0;strokeColor=#6c8ebf;strokeWidth=2;" parent="1" target="k6Jw7tT7C6OBQGts24MX-36" edge="1">
          <mxGeometry relative="1" as="geometry">
            <mxPoint x="280" y="790" as="sourcePoint" />
          </mxGeometry>
        </mxCell>
        <mxCell id="k6Jw7tT7C6OBQGts24MX-35" value="&lt;span style=&quot;font-weight: 700;&quot;&gt;ESTABLISHED&lt;/span&gt;" style="rounded=0;whiteSpace=wrap;html=1;fontSize=16;fontFamily=Helvetica;fillColor=#d5e8d4;strokeColor=#82b366;gradientColor=#97d077;" parent="1" vertex="1">
          <mxGeometry x="160" y="780" width="120" height="110" as="geometry" />
        </mxCell>
        <mxCell id="k6Jw7tT7C6OBQGts24MX-36" value="&lt;span style=&quot;font-weight: 700;&quot;&gt;ESTABLISHED&lt;/span&gt;" style="rounded=0;whiteSpace=wrap;html=1;fontSize=16;fontFamily=Helvetica;fillColor=#d5e8d4;strokeColor=#82b366;gradientColor=#97d077;" parent="1" vertex="1">
          <mxGeometry x="480" y="810" width="120" height="110" as="geometry" />
        </mxCell>
        <mxCell id="k6Jw7tT7C6OBQGts24MX-38" value="RST" style="rounded=0;orthogonalLoop=1;jettySize=auto;html=1;fontSize=16;exitX=-0.008;exitY=0.588;exitDx=0;exitDy=0;exitPerimeter=0;fillColor=#f8cecc;strokeColor=#FF6666;strokeWidth=2;fontColor=#FF6666;fontStyle=1" parent="1" edge="1">
          <mxGeometry relative="1" as="geometry">
            <mxPoint x="389.03999999999996" y="858.52" as="sourcePoint" />
            <mxPoint x="280" y="891.48" as="targetPoint" />
          </mxGeometry>
        </mxCell>
        <mxCell id="k6Jw7tT7C6OBQGts24MX-39" value="CLOSED" style="rounded=0;whiteSpace=wrap;html=1;fontSize=16;fontStyle=1;fillColor=#f5f5f5;strokeColor=#666666;gradientColor=#b3b3b3;" parent="1" vertex="1">
          <mxGeometry x="160" y="890" width="120" height="30" as="geometry" />
        </mxCell>
        <mxCell id="k6Jw7tT7C6OBQGts24MX-45" value="服务器启动了服务" style="text;html=1;align=center;verticalAlign=middle;resizable=0;points=[];autosize=1;strokeColor=#36393d;fillColor=#ffff88;fontSize=16;fontFamily=Helvetica;" parent="1" vertex="1">
          <mxGeometry x="470" y="160" width="140" height="20" as="geometry" />
        </mxCell>
        <mxCell id="k6Jw7tT7C6OBQGts24MX-46" value="被网络阻塞" style="text;html=1;align=center;verticalAlign=middle;resizable=0;points=[];autosize=1;strokeColor=#b85450;fillColor=#f8cecc;fontSize=16;fontFamily=Helvetica;" parent="1" vertex="1">
          <mxGeometry x="290" y="130" width="100" height="20" as="geometry" />
        </mxCell>
        <mxCell id="k6Jw7tT7C6OBQGts24MX-47" value="延迟的 RST 抵达了&lt;br&gt;客户端，而且因为 &lt;br&gt;RST 的序列号正好&lt;br&gt;在客户端接收窗口内，&lt;br&gt;所以被接受了" style="text;html=1;align=center;verticalAlign=middle;resizable=0;points=[];autosize=1;strokeColor=#b85450;fillColor=#f8cecc;fontSize=16;fontFamily=Helvetica;" parent="1" vertex="1">
          <mxGeometry x="290" y="900" width="180" height="100" as="geometry" />
        </mxCell>
        <mxCell id="k6Jw7tT7C6OBQGts24MX-48" value="因为开启了&amp;nbsp;&lt;span style=&quot;color: rgb(51, 51, 51); font-family: &amp;quot;helvetica neue&amp;quot;, helvetica, arial, sans-serif; font-size: 16px; text-align: left;&quot;&gt;tcp_tw_reuse，&lt;br style=&quot;font-size: 16px;&quot;&gt;time_wait状态的连接&lt;br style=&quot;font-size: 16px;&quot;&gt;被快速复用了&lt;br style=&quot;font-size: 16px;&quot;&gt;&lt;/span&gt;" style="text;html=1;align=center;verticalAlign=middle;resizable=0;points=[];autosize=1;strokeColor=#36393d;fillColor=#ffff88;fontSize=16;fontFamily=Helvetica;labelBackgroundColor=none;" parent="1" vertex="1">
          <mxGeometry x="-50" y="565" width="210" height="70" as="geometry" />
        </mxCell>
        <mxCell id="k6Jw7tT7C6OBQGts24MX-50" value="" style="endArrow=none;dashed=1;html=1;dashPattern=1 3;strokeWidth=2;rounded=0;fontFamily=Helvetica;fontSize=16;fontColor=#FF6666;" parent="1" edge="1">
          <mxGeometry width="50" height="50" relative="1" as="geometry">
            <mxPoint x="100" y="640" as="sourcePoint" />
            <mxPoint x="680" y="650" as="targetPoint" />
          </mxGeometry>
        </mxCell>
        <mxCell id="k6Jw7tT7C6OBQGts24MX-51" value="建议与上一个连接&lt;br&gt;相同四元组的连接" style="text;html=1;align=center;verticalAlign=middle;resizable=0;points=[];autosize=1;strokeColor=#36393d;fillColor=#ffff88;fontSize=16;fontFamily=Helvetica;" parent="1" vertex="1">
          <mxGeometry x="600" y="660" width="140" height="40" as="geometry" />
        </mxCell>
      </root>
    </mxGraphModel>
  </diagram>
</mxfile>
